<?xml version="1.0" standalone="no"?>
<!DOCTYPE svg PUBLIC "-//W3C//DTD SVG 20010904//EN"
 "http://www.w3.org/TR/2001/REC-SVG-20010904/DTD/svg10.dtd">
<svg version="1.0" xmlns="http://www.w3.org/2000/svg"
 width="628.000000pt" height="628.000000pt" viewBox="0 0 628.000000 628.000000"
 preserveAspectRatio="xMidYMid meet">
<metadata>
Created by potrace 1.14, written by Peter Selinger 2001-2017
</metadata>
<g transform="translate(0.000000,628.000000) scale(0.100000,-0.100000)"
fill="#000000" stroke="none">
<path d="M0 3135 l0 -2955 3140 0 3140 0 0 2955 0 2955 -3140 0 -3140 0 0
-2955z m5535 2634 c201 -66 274 -94 260 -99 -11 -4 -218 -56 -460 -115 l-440
-108 -285 93 c-157 51 -279 95 -271 98 28 9 886 220 901 221 8 1 141 -40 295
-90z m-3295 -160 c80 -23 149 -45 153 -49 5 -4 -13 -11 -40 -14 -101 -15 -93
-4 -93 -132 l0 -113 -37 -10 c-21 -6 -44 -11 -51 -11 -19 0 -766 211 -775 219
-8 8 617 148 668 150 16 0 95 -17 175 -40z m1118 -81 c106 -34 189 -65 185
-69 -5 -3 -125 -33 -268 -64 l-260 -58 -200 66 c-110 36 -193 68 -185 71 26 9
494 114 515 115 11 1 107 -27 213 -61z m2642 -736 l0 -797 -522 -128 c-288
-70 -526 -127 -530 -127 -5 0 -8 357 -8 793 l0 794 318 77 c255 63 728 181
740 185 1 1 2 -358 2 -797z m-1994 541 c-2 -3 -14 -2 -25 2 -30 9 -29 53 2 57
18 2 23 -2 25 -25 2 -16 1 -31 -2 -34z m2 -300 l2 -163 -22 9 c-22 8 -23 12
-26 165 l-3 157 23 -3 c23 -3 23 -5 26 -165z m-696 -68 c227 -75 420 -139 428
-142 8 -3 -126 -40 -298 -83 l-313 -77 -429 141 c-237 78 -430 143 -430 146 0
8 567 147 602 149 14 0 212 -60 440 -134z m-445 -351 l243 -79 0 -679 c0 -538
-3 -677 -12 -674 -7 3 -230 78 -495 169 l-483 164 0 671 0 672 253 -83 c138
-45 361 -117 494 -161z m1073 -576 l0 -693 -343 -88 c-188 -48 -345 -88 -349
-87 -5 0 -8 312 -8 694 l0 694 343 85 c188 47 345 86 350 86 4 1 7 -311 7
-691z m-2590 551 c0 -5 -175 -50 -192 -49 -5 0 -8 26 -8 59 l0 58 100 -31 c55
-17 100 -33 100 -37z m185 -353 l70 -22 3 -287 c1 -158 -1 -287 -6 -287 -4 0
-64 17 -132 39 -69 21 -171 53 -227 70 l-103 32 0 288 0 289 163 -50 c89 -28
194 -60 232 -72z m2565 -410 c0 -2 -7 -6 -15 -10 -8 -3 -15 -1 -15 4 0 6 7 10
15 10 8 0 15 -2 15 -4z m-3360 -823 c0 -372 -3 -473 -12 -472 -7 0 -107 33
-223 73 l-210 72 -3 476 -2 476 225 -76 225 -77 0 -472z m4130 527 c0 -5 -7
-7 -15 -4 -8 4 -15 8 -15 10 0 2 7 4 15 4 8 0 15 -4 15 -10z m-3085 -184 l70
-22 -70 -18 c-38 -9 -87 -21 -107 -27 l-38 -10 0 -409 c0 -226 -1 -410 -3
-410 -2 0 -57 22 -123 49 l-119 50 -3 459 -2 460 162 -50 c90 -28 195 -61 233
-72z m3272 -1042 c-2 -2 -174 -48 -383 -102 l-379 -98 -3 490 c-1 269 0 491 2
493 2 2 174 48 382 102 l379 98 3 -490 c1 -270 1 -492 -1 -493z m-2133 800
c244 -83 252 -85 299 -75 27 6 53 11 58 11 5 0 9 -127 9 -310 l0 -310 -22 -5
c-13 -3 -275 -61 -583 -130 -308 -69 -570 -127 -582 -130 l-23 -5 0 447 0 448
278 72 c152 39 286 71 296 72 10 1 132 -38 270 -85z m-974 -491 c0 -238 -4
-433 -8 -433 -4 0 -44 13 -88 29 l-79 29 -3 436 -2 435 90 -32 90 -32 0 -432z
m4038 -605 l-3 -541 -685 -143 c-377 -79 -688 -144 -692 -144 -5 0 -8 195 -8
434 l0 435 53 15 c28 8 161 43 295 77 l242 62 0 91 0 91 383 81 c210 45 390
82 400 83 16 1 17 -29 15 -541z m-4710 446 l37 -17 -40 -8 c-22 -5 -73 -16
-112 -25 l-73 -16 0 -174 0 -174 -25 12 -25 11 0 182 0 182 88 20 c110 26 106
26 150 7z m195 -334 l227 -93 0 -669 c0 -532 -3 -669 -12 -665 -7 3 -115 46
-240 97 l-228 93 0 669 c0 532 3 669 13 665 6 -3 114 -46 240 -97z m2589 -98
c159 -66 165 -68 208 -57 25 7 57 15 73 18 l27 7 0 -698 0 -698 -412 -92
c-227 -51 -416 -92 -421 -92 -4 0 -6 138 -5 307 l3 306 190 43 c105 23 225 49
268 59 l77 17 -2 395 -3 395 -155 63 -154 63 39 10 c54 14 78 19 91 21 6 0 85
-30 176 -67z m-1367 -228 l400 -163 3 -261 c2 -247 1 -262 -15 -256 -10 4
-210 84 -445 179 l-428 172 0 262 0 263 43 -17 c23 -10 222 -90 442 -179z
m1245 -267 l0 -283 -347 -77 c-192 -43 -351 -77 -356 -77 -4 0 -6 127 -5 282
l3 281 340 77 c187 43 346 78 353 79 9 1 12 -62 12 -282z"/>
</g>
</svg>
